<svg id="Layer_1" data-name="Layer 1" xmlns="http://www.w3.org/2000/svg" viewBox="0 0 214.66 154.56"><defs><style>.cls-1{fill:#d62727;}.cls-2{fill:#eaeaea;}.cls-3{fill:#cecece;}.cls-4{fill:#fff;}</style></defs><path d="M202.28,93.15H200V91.93h5.81v1.22h-2.26V99h-1.29Zm8.46,3.13,2.65-4.35h1.27v7h-1.2V94.12l-2.35,3.71h-.77L208,94.05V99h-1.22v-7h1.32Z"/><path d="M81.72,144.86h2.66a3.62,3.62,0,0,1,2.7,1,4.15,4.15,0,0,1,0,5.32,3.38,3.38,0,0,1-2.59,1h-2.8Zm2.83,6.42a2.29,2.29,0,0,0,1.81-.77,2.87,2.87,0,0,0,.68-2,2.83,2.83,0,0,0-.69-2,2.37,2.37,0,0,0-1.85-.76H82.72v5.5Z"/><path d="M89.79,147.55a2.95,2.95,0,0,1,3.95,0,2.51,2.51,0,0,1,.77,1.9c0,.16,0,.31,0,.47H90a1.84,1.84,0,0,0,.59,1.18,1.8,1.8,0,0,0,1.26.46,2,2,0,0,0,1-.25,1.68,1.68,0,0,0,.66-.66l.78.36a2,2,0,0,1-.95,1,3,3,0,0,1-1.5.37A2.7,2.7,0,0,1,89,149.54,2.65,2.65,0,0,1,89.79,147.55Zm.17,1.58h3.59A1.8,1.8,0,0,0,93,148a1.72,1.72,0,0,0-1.19-.44,1.76,1.76,0,0,0-1.2.45A1.82,1.82,0,0,0,90,149.13Zm1.34-3,.52-1.58H93l-.74,1.58Z"/><path d="M96.74,144.51v7.69h-1v-7.69Z"/><path d="M98.77,147.55a2.74,2.74,0,0,1,2-.78,2.71,2.71,0,0,1,1.94.74,2.55,2.55,0,0,1,.77,1.9,3.71,3.71,0,0,1,0,.47H98.94a1.84,1.84,0,0,0,.59,1.18,1.8,1.8,0,0,0,1.27.46,2,2,0,0,0,1-.25,1.61,1.61,0,0,0,.66-.66l.78.36a2.07,2.07,0,0,1-.94,1,3,3,0,0,1-1.51.37,2.69,2.69,0,0,1-2.8-2.78A2.65,2.65,0,0,1,98.77,147.55Zm.17,1.58h3.59A1.8,1.8,0,0,0,102,148a1.72,1.72,0,0,0-1.19-.44,1.76,1.76,0,0,0-1.2.45A1.87,1.87,0,0,0,98.94,149.13Zm1.34-3,.53-1.58H102l-.74,1.58Z"/><path d="M104.35,149.5a2.74,2.74,0,0,1,.74-1.95,2.47,2.47,0,0,1,1.86-.77,2.35,2.35,0,0,1,2,1v-.9h1v5a2.51,2.51,0,0,1-.77,2,3.08,3.08,0,0,1-2.17.7,4.38,4.38,0,0,1-2.16-.54v-.92a3.87,3.87,0,0,0,2.1.59,2.24,2.24,0,0,0,1.51-.47,1.72,1.72,0,0,0,.53-1.36v-.69a2.3,2.3,0,0,1-2,1,2.47,2.47,0,0,1-1.85-.77A2.69,2.69,0,0,1,104.35,149.5Zm1.51,1.29a1.7,1.7,0,0,0,1.28.52,1.73,1.73,0,0,0,1.29-.52,2,2,0,0,0,0-2.61,1.84,1.84,0,0,0-2.57,0,1.84,1.84,0,0,0-.51,1.33A1.7,1.7,0,0,0,105.86,150.79Z"/><path d="M111.42,146.88h1v3a1.56,1.56,0,0,0,.39,1.1,1.29,1.29,0,0,0,1,.43,1.55,1.55,0,0,0,1.15-.51,1.78,1.78,0,0,0,.48-1.27v-2.76h1v5.32h-1v-.91a2.16,2.16,0,0,1-1.93,1,1.94,1.94,0,0,1-1.53-.64,2.4,2.4,0,0,1-.59-1.69Z"/><path d="M118.46,147.55a2.72,2.72,0,0,1,2-.78,2.68,2.68,0,0,1,1.94.74,2.51,2.51,0,0,1,.77,1.9c0,.16,0,.31,0,.47h-4.53a1.84,1.84,0,0,0,.59,1.18,1.8,1.8,0,0,0,1.26.46,2,2,0,0,0,1-.25,1.68,1.68,0,0,0,.66-.66l.78.36a2,2,0,0,1-1,1,3,3,0,0,1-1.5.37,2.7,2.7,0,0,1-2.81-2.78A2.65,2.65,0,0,1,118.46,147.55Zm.17,1.58h3.59a1.8,1.8,0,0,0-.58-1.14,1.72,1.72,0,0,0-1.19-.44,1.76,1.76,0,0,0-1.2.45A1.82,1.82,0,0,0,118.63,149.13Zm1.34-3,.52-1.58h1.21l-.74,1.58Z"/><path d="M127.92,144.86l3,4.68,3-4.68h1v7.34h-1v-5.63l-2.6,4.09h-.69l-2.6-4.08v5.62h-1v-7.34Z"/><path d="M136.9,147.55a2.76,2.76,0,0,1,2-.78,2.7,2.7,0,0,1,1.94.74,2.55,2.55,0,0,1,.77,1.9c0,.16,0,.31,0,.47h-4.53a1.8,1.8,0,0,0,1.85,1.64,1.91,1.91,0,0,0,1-.25,1.64,1.64,0,0,0,.67-.66l.78.36a2.09,2.09,0,0,1-1,1,3,3,0,0,1-1.5.37,2.7,2.7,0,0,1-2-.79,2.89,2.89,0,0,1,0-4Zm.18,1.58h3.58a1.79,1.79,0,0,0-.57-1.14,1.73,1.73,0,0,0-1.19-.44,1.76,1.76,0,0,0-1.2.45A1.82,1.82,0,0,0,137.08,149.13Zm1.34-3,.52-1.58h1.21l-.75,1.58Z"/><path d="M143.22,147.57a2.43,2.43,0,0,1,1.85-.79,2.33,2.33,0,0,1,2,1v-3.27h1v7.71h-1v-.89a2.5,2.5,0,0,1-3.84.21,2.81,2.81,0,0,1-.74-2A2.75,2.75,0,0,1,143.22,147.57Zm.77,3.31a1.6,1.6,0,0,0,1.25.55,1.74,1.74,0,0,0,1.3-.54,1.86,1.86,0,0,0,.53-1.35,1.81,1.81,0,0,0-.52-1.33,1.74,1.74,0,0,0-1.3-.54,1.67,1.67,0,0,0-1.27.54,2,2,0,0,0,0,2.67Z"/><path d="M149.46,145.39a.63.63,0,0,1,.2-.47.66.66,0,0,1,.49-.2.65.65,0,0,1,.48.19.68.68,0,0,1,0,1,.63.63,0,0,1-.48.21.67.67,0,0,1-.49-.21A.66.66,0,0,1,149.46,145.39Zm.19,6.81v-5.32h1v5.32Z"/><path d="M152.7,147.54a2.79,2.79,0,0,1,2-.78,3,3,0,0,1,1.65.47,2.39,2.39,0,0,1,1,1.29l-.94.28a1.56,1.56,0,0,0-.64-.82,1.72,1.72,0,0,0-1-.32,1.79,1.79,0,0,0-1.34.52,2,2,0,0,0,0,2.72,1.79,1.79,0,0,0,1.34.53,1.84,1.84,0,0,0,1-.32,1.79,1.79,0,0,0,.67-.83l.88.38a2.5,2.5,0,0,1-1,1.2,3,3,0,0,1-1.64.46,2.71,2.71,0,0,1-2-.78,2.91,2.91,0,0,1,0-4Z"/><path d="M158.08,149.54a2.8,2.8,0,0,1,.75-2,2.44,2.44,0,0,1,1.87-.79,2.3,2.3,0,0,1,2,1.05v-.93h.94v5.32h-.94v-.94a2.29,2.29,0,0,1-2,1.06,2.46,2.46,0,0,1-1.87-.79A2.82,2.82,0,0,1,158.08,149.54Zm1,0a1.86,1.86,0,0,0,.52,1.35,1.79,1.79,0,0,0,2.57,0,1.92,1.92,0,0,0,.52-1.36,1.82,1.82,0,0,0-.52-1.33,1.72,1.72,0,0,0-1.28-.53,1.7,1.7,0,0,0-1.29.54A1.85,1.85,0,0,0,159.08,149.54Z"/><path d="M166.26,144.51v7.69h-1v-7.69Z"/><path d="M170.43,144.86h2.65a3.59,3.59,0,0,1,2.7,1,3.66,3.66,0,0,1,1,2.66,3.73,3.73,0,0,1-1,2.66,3.4,3.4,0,0,1-2.59,1h-2.8Zm2.83,6.42a2.31,2.31,0,0,0,1.81-.77,2.92,2.92,0,0,0,.68-2,2.83,2.83,0,0,0-.69-2,2.37,2.37,0,0,0-1.85-.76h-1.78v5.5Z"/><path d="M177.87,145.39a.6.6,0,0,1,.2-.47.66.66,0,0,1,.49-.2.65.65,0,0,1,.48.19.68.68,0,0,1,0,1,.63.63,0,0,1-.48.21.67.67,0,0,1-.49-.21A.62.62,0,0,1,177.87,145.39Zm.18,6.81v-5.32h1v5.32Z"/><path d="M180.31,149.5a2.74,2.74,0,0,1,.74-1.95,2.5,2.5,0,0,1,1.86-.77,2.35,2.35,0,0,1,2,1v-.9h1v5a2.53,2.53,0,0,1-.76,2,3.11,3.11,0,0,1-2.18.7,4.44,4.44,0,0,1-2.16-.54v-.92a3.89,3.89,0,0,0,2.1.59,2.24,2.24,0,0,0,1.51-.47,1.72,1.72,0,0,0,.53-1.36v-.69a2.29,2.29,0,0,1-2,1,2.48,2.48,0,0,1-1.85-.77A2.69,2.69,0,0,1,180.31,149.5Zm1.52,1.29a1.67,1.67,0,0,0,1.27.52,1.72,1.72,0,0,0,1.29-.52,1.75,1.75,0,0,0,.51-1.29,1.8,1.8,0,0,0-.51-1.32,1.84,1.84,0,0,0-2.57,0,1.84,1.84,0,0,0-.51,1.33A1.67,1.67,0,0,0,181.83,150.79Z"/><path d="M187.3,145.39a.63.63,0,0,1,.2-.47.66.66,0,0,1,.49-.2.65.65,0,0,1,.48.19.68.68,0,0,1,0,1,.63.63,0,0,1-.48.21.67.67,0,0,1-.49-.21A.66.66,0,0,1,187.3,145.39Zm.19,6.81v-5.32h1v5.32Z"/><path d="M189.55,146.88h.95V145h1v1.9h1.75v.83h-1.75v2.72a1.13,1.13,0,0,0,.21.77,1,1,0,0,0,.76.23,2.47,2.47,0,0,0,1-.19v.85a3.09,3.09,0,0,1-1.17.23,1.71,1.71,0,0,1-1.3-.47,1.74,1.74,0,0,1-.45-1.27v-2.87h-.95Z"/><path d="M193.88,149.54a2.8,2.8,0,0,1,.75-2,2.44,2.44,0,0,1,1.87-.79,2.3,2.3,0,0,1,2,1.05v-.93h.94v5.32h-.94v-.94a2.29,2.29,0,0,1-2,1.06,2.44,2.44,0,0,1-1.87-.79A2.82,2.82,0,0,1,193.88,149.54Zm1,0a1.89,1.89,0,0,0,.51,1.35,1.73,1.73,0,0,0,1.29.54,1.7,1.7,0,0,0,1.29-.55,1.92,1.92,0,0,0,.52-1.36,1.82,1.82,0,0,0-.52-1.33,1.82,1.82,0,0,0-2.58,0A1.88,1.88,0,0,0,194.88,149.54Z"/><path d="M202.06,144.51v7.69h-1v-7.69Z"/><path d="M81.63,103.86H96.41q8.86,0,13.81,5t5,13.38q0,8.32-4.82,13.27t-13.46,5H81.63Zm16.09,27.86a6.94,6.94,0,0,0,5.64-2.68,10.78,10.78,0,0,0,2.19-7,10.27,10.27,0,0,0-2.19-6.81,7.17,7.17,0,0,0-5.75-2.6H91.15v19.1Z"/><path d="M129.84,103.86l11.77,19.32,11.77-19.32h9.19v36.62h-9.19V119.9l-8.65,13.63h-6.29l-8.6-13.63v20.58H120.6V103.86Z"/><path d="M169.63,103.86h14.78q8.86,0,13.82,5t5,13.38q0,8.32-4.82,13.27t-13.46,5H169.63Zm16.09,27.86a6.94,6.94,0,0,0,5.64-2.68,10.73,10.73,0,0,0,2.19-7,10.22,10.22,0,0,0-2.19-6.81,7.17,7.17,0,0,0-5.75-2.6h-6.46v19.1Z"/><circle class="cls-1" cx="94.42" cy="47.81" r="47.81"/><path d="M21.86,141.46A2,2,0,0,1,20.4,138l15.51-16.09a2,2,0,0,1,2.92,2.81L23.32,140.84A2,2,0,0,1,21.86,141.46Z"/><path d="M2.37,139.06A2,2,0,0,1,1,138.5a2,2,0,0,1,0-2.87l21.77-22.57a2,2,0,0,1,2.92,2.81L3.83,138.45A2,2,0,0,1,2.37,139.06Z"/><path d="M2,116.82a2,2,0,0,1-1.45-3.43L15.3,98.11a2,2,0,1,1,2.91,2.81L3.48,116.2A2,2,0,0,1,2,116.82Z"/><path d="M106.69,48.79l-.13.15L92.63,62.87h0l-2.21,2.22a2,2,0,0,1-2.19.44L88,65.45l-.26-.17,0,0-.08-.07-.12-.1a2,2,0,0,1,0-2.87l16.14-16.14a2,2,0,0,1,3,2.71Z"/><path d="M106.69,48.79l-.13.15a12.82,12.82,0,0,1-7.85,3.7,11.1,11.1,0,0,1-1.63,0,12.59,12.59,0,0,1-4.61-1L85.14,59l-1.56,1.57a2,2,0,0,1-1.43.6l-.2,0h-.14l-.17,0a.53.53,0,0,1-.12,0,2,2,0,0,1-.63-.34h0l-.09-.08-.08-.07a2,2,0,0,1,0-2.85h0l0,0c.41-.42.88-.88,1.38-1.38l4.81-4.81,3.7-3.69a2,2,0,0,1,2.45-.32,8.73,8.73,0,0,0,5.23,1.14,8.82,8.82,0,0,0,5.37-2.54,11.51,11.51,0,0,0,0-16.26,14.91,14.91,0,0,0-21,0A2,2,0,1,1,79.79,27c0-.05.1-.09.15-.14a18.93,18.93,0,0,1,26.62.15A15.54,15.54,0,0,1,106.69,48.79Z"/><path d="M87.75,65.26l-.08-.07-.12-.1a2,2,0,0,1,0-2.87l1-1A23.28,23.28,0,0,1,85.14,59l-1.56,1.57a2,2,0,0,1-1.43.6l-.2,0h-.14l-.17,0a.53.53,0,0,1-.12,0,2,2,0,0,1-.63-.34A28,28,0,0,0,88,65.45l-.26-.17Zm.29.19.11,0,.07,0Zm21.37-1.65a2,2,0,0,0-2.33-.89,24.46,24.46,0,0,1-14.45,0h0a24.49,24.49,0,0,1-2.81-1.06c-.41-.19-.83-.4-1.23-.61A23.28,23.28,0,0,1,85.14,59c-.56-.42-1.1-.88-1.63-1.36h0c-.29-.26-.58-.53-.85-.8l-.52-.54a19.14,19.14,0,0,1,.52-26.49,2,2,0,0,0,0-2.86,2.07,2.07,0,0,0-1.43-.6,2,2,0,0,0-1.28.46c0,.05-.11.09-.15.14L49.14,57.6l-.14.13L32.49,74.24a24.3,24.3,0,0,0-.07,34.26l.07.07a24.12,24.12,0,0,0,17.16,7.11h0a24.12,24.12,0,0,0,17.16-7.11L83.17,92.21l25.94-25.94A2,2,0,0,0,109.41,63.8Zm-28.54,25-3.74,3.75L64,105.71a20.13,20.13,0,0,1-14.3,5.92h0a20.22,20.22,0,0,1-14.3-34.52L52.45,60l3.23-3.23,3.73-3.73,4.23-4.23,4-4,5.77-5.77a23.16,23.16,0,0,0,6.38,20.65c.3.3.6.59.92.87l.08.07.09.08h0A28,28,0,0,0,88,65.45l.11,0,.07,0A28.31,28.31,0,0,0,101.67,68ZM88,65.45l.11,0,.07,0Zm-.29-.19-.08-.07-.12-.1a2,2,0,0,1,0-2.87l1-1A23.28,23.28,0,0,1,85.14,59l-1.56,1.57a2,2,0,0,1-1.43.6l-.2,0h-.14l-.17,0a.53.53,0,0,1-.12,0,2,2,0,0,1-.63-.34A28,28,0,0,0,88,65.45l-.26-.17Z"/><path class="cls-2" d="M97.08,52.69l-8.5,8.51A23.28,23.28,0,0,1,85.14,59l7.33-7.32A12.59,12.59,0,0,0,97.08,52.69Z"/><path class="cls-3" d="M103.69,46.08a8.82,8.82,0,0,1-5.37,2.54,8.73,8.73,0,0,1-5.23-1.14,2,2,0,0,0-2.45.32l-3.7,3.69L82.13,56.3a19.14,19.14,0,0,1,.52-26.49,14.91,14.91,0,0,1,21,0A11.51,11.51,0,0,1,103.69,46.08Z"/><path class="cls-4" d="M101.67,68l-20.8,20.8c-7.11,0-15-3.87-20.87-10.09C54.71,73,52,66.43,52.45,60l3.23-3.23A31,31,0,0,0,65.84,74.44,2.07,2.07,0,0,0,67.2,75a2,2,0,0,0,1.36-3.53c-5.79-5.23-9.1-11.89-9.15-18.38l4.23-4.23a28.9,28.9,0,0,0,5.2,13.6,2,2,0,0,0,2.81.52,2,2,0,0,0,.52-2.82,23.49,23.49,0,0,1-4.53-15.29l5.77-5.77a23.16,23.16,0,0,0,6.38,20.65c.3.3.6.59.92.87l.08.07.09.08h0A28,28,0,0,0,88,65.45l.11,0,.07,0A28.31,28.31,0,0,0,101.67,68Z"/><path class="cls-1" d="M77.13,92.53,64,105.71a20.13,20.13,0,0,1-14.3,5.92h0a20.22,20.22,0,0,1-14.3-34.52L48.5,64a30.65,30.65,0,0,0,8.55,17.5A36,36,0,0,0,77.13,92.53Z"/><path class="cls-4" d="M38.8,104.23a2,2,0,0,1-1.43-.6,17.34,17.34,0,0,1,0-24.47A2,2,0,0,1,40.26,82a13.31,13.31,0,0,0,0,18.76,2,2,0,0,1-1.44,3.45Z"/><path d="M83.74,90.73a2,2,0,0,1-.57,1.48,2,2,0,0,1-1.39.61H81a25.91,25.91,0,0,1-3.9-.3A36,36,0,0,1,57.05,81.46,30.65,30.65,0,0,1,48.5,64a24.36,24.36,0,0,1,0-5.05A2,2,0,0,1,49,57.73l.14-.13a2,2,0,0,1,3.36,1.71c0,.23,0,.47,0,.7C52,66.43,54.71,73,60,78.69c5.83,6.22,13.76,10,20.87,10.09.26,0,.52,0,.78,0A2,2,0,0,1,83.74,90.73Z"/><path d="M68.7,74.29a2,2,0,0,1-1.5.67,2.07,2.07,0,0,1-1.36-.52A31,31,0,0,1,55.68,56.78a23.7,23.7,0,0,1-.32-4.44,2,2,0,1,1,4,.09v.62c.05,6.49,3.36,13.15,9.15,18.38A2,2,0,0,1,68.7,74.29Z"/><path d="M71.65,62.94a2,2,0,0,1-2.81-.52,28.9,28.9,0,0,1-5.2-13.6,24.53,24.53,0,0,1,0-4.77,2,2,0,0,1,4,.39c0,.13,0,.26,0,.39a23.49,23.49,0,0,0,4.53,15.29A2,2,0,0,1,71.65,62.94Z"/></svg>